# xmcd
#
# Track frame offsets:
#	150
#	13449
#	26199
#	39168
#	56163
#	85813
#	102492
#	119332
#	135759
#	147799
#	159576
#	170155
#	186484
#	200149
#	213523
#	226102
#	236738
#	253083
#	264608
#	276458
#	287676
#	300953
#	312291
#	324918
#	337268
#
# Disc length: 4675
#
# Revision: 3
# Processed by: cddbd v1.5.1PL0 Copyright (c) Steve Scherf et al.
# Submitted via: EasyCDDAExtractor 6.2.0.3
# Normalized: r2:DSETVAR1
#
DISCID=7d124119
DTITLE=Various Artist - Soul City - Prince Of The City
DYEAR=2001
DGENRE=Soul
TTITLE0=The Temptations - My Girl
TTITLE1=The Temptations - Ain't Too Proud To Beg
TTITLE2=The Temptations - Get Ready
TTITLE3=The Temptations - Just My Imagination (Running Away With Me)
TTITLE4=The Temptations - Papa Was A Rolling Stone
TTITLE5=Eddie Floyd - On A Saturday Night
TTITLE6=Eddie Floyd - Mr Blue
TTITLE7=Eddie Floyd - I've Got A Reason To Smile ('Cause I Got You)
TTITLE8=Eddie Floyd - Things Get Better
TTITLE9=Eddie Floyd - Got To Make A Comeback
TTITLE10=Sam and Dave - Soul Sister, Brown Sugar
TTITLE11=Sam and Dave - Love The One You're With
TTITLE12=Sam and Dave - Mustang Sally
TTITLE13=Sam and Dave - How Sweet It Is (To Be Loved By You)
TTITLE14=Sam and Dave - (I Can't Get No) Satisfaction
TTITLE15=The Drifters - Dance With Me
TTITLE16=The Drifters - Unchained Melody
TTITLE17=The Drifters - Cupid
TTITLE18=The Drifters - On Broadway
TTITLE19=The Drifters - Save The Last Dance For Me
TTITLE20=Percy Sledge - My Special Prayer
TTITLE21=Percy Sledge - (Sittin' On) The Dock Of The Bay
TTITLE22=Percy Sledge - Behind Closed Doors
TTITLE23=Percy Sledge - It Tears Me Up
TTITLE24=Percy Sledge - Take Time To Know Her
EXTD=
EXTT0=
EXTT1=
EXTT2=
EXTT3=
EXTT4=
EXTT5=
EXTT6=
EXTT7=
EXTT8=
EXTT9=
EXTT10=
EXTT11=
EXTT12=
EXTT13=
EXTT14=
EXTT15=
EXTT16=
EXTT17=
EXTT18=
EXTT19=
EXTT20=
EXTT21=
EXTT22=
EXTT23=
EXTT24=
PLAYORDER=
